<svg xmlns="http://www.w3.org/2000/svg" xmlns:xlink="http://www.w3.org/1999/xlink" width="500" zoomAndPan="magnify" viewBox="0 0 375 374.999991" height="500" preserveAspectRatio="xMidYMid meet" version="1.0"><defs><g/><clipPath id="56175affcf"><path d="M 127 79.121094 L 252 79.121094 L 252 183 L 127 183 Z M 127 79.121094 " clip-rule="nonzero"/></clipPath><clipPath id="1f99624d11"><path d="M 119.640625 122 L 255.390625 122 L 255.390625 207.371094 L 119.640625 207.371094 Z M 119.640625 122 " clip-rule="nonzero"/></clipPath></defs><g clip-path="url(#56175affcf)"><path fill="#81cc2a" d="M 150.132812 131.648438 L 163.652344 120.328125 L 163.652344 163.019531 L 150.132812 149.503906 Z M 173.792969 114.671875 L 187.3125 103.351562 L 187.3125 167.4375 L 177.691406 177.054688 L 173.792969 173.15625 Z M 197.453125 97.695312 L 210.972656 86.375 L 210.972656 143.785156 L 197.453125 157.300781 Z M 149.875 154.847656 L 177.691406 182.660156 L 220.089844 140.273438 L 211.914062 132.101562 L 251.613281 121.464844 C 242.695312 96.800781 219.070312 79.171875 191.324219 79.171875 C 155.925781 79.171875 127.230469 107.859375 127.230469 143.246094 C 127.230469 153.234375 129.523438 162.6875 133.601562 171.117188 L 149.875 154.847656 " fill-opacity="1" fill-rule="nonzero"/></g><g clip-path="url(#1f99624d11)"><path fill="#ffffff" d="M 252.023438 122.632812 L 241.546875 161.726562 L 232.96875 153.152344 L 177.484375 198.78125 L 149.382812 166.132812 L 119.65625 185.058594 L 137.738281 178.402344 C 149.195312 195.816406 168.914062 207.320312 191.324219 207.320312 C 226.71875 207.320312 255.414062 178.632812 255.414062 143.246094 C 255.414062 136.035156 254.222656 129.101562 252.023438 122.632812 " fill-opacity="1" fill-rule="nonzero"/></g><g fill="#ffffff" fill-opacity="1"><g transform="translate(86.187241, 264.47341)"><g><path d="M 2.027344 0 L 11.3125 0 L 11.3125 -3.136719 L 8.730469 -3.136719 L 8.730469 -9.898438 L 17.09375 -9.898438 L 17.09375 -13.035156 L 8.730469 -13.035156 L 8.730469 -19.0625 L 16.203125 -19.0625 L 16.203125 -16.972656 L 19.429688 -16.972656 L 19.429688 -22.195312 L 2.027344 -22.195312 L 2.027344 -19.0625 L 4.582031 -19.0625 L 4.582031 -3.136719 L 2.027344 -3.136719 Z M 2.027344 0 "/></g></g></g><g fill="#ffffff" fill-opacity="1"><g transform="translate(108.962745, 264.47341)"><g><path d="M 1.351562 0 L 10.605469 0 L 10.605469 -3.136719 L 8.023438 -3.136719 L 8.023438 -19.0625 L 10.605469 -19.0625 L 10.605469 -22.195312 L 1.351562 -22.195312 L 1.351562 -19.0625 L 3.84375 -19.0625 L 3.84375 -3.136719 L 1.351562 -3.136719 Z M 1.351562 0 "/></g></g></g><g fill="#ffffff" fill-opacity="1"><g transform="translate(123.286175, 264.47341)"><g><path d="M 1.320312 0 L 10.390625 0 L 10.390625 -3.136719 L 7.960938 -3.136719 L 7.960938 -16.480469 C 12.175781 -10.976562 16.355469 -5.472656 20.566406 0 L 25.394531 0 L 25.394531 -19.0625 L 27.640625 -19.0625 L 27.640625 -22.195312 L 18.847656 -22.195312 L 18.847656 -19.0625 L 21.242188 -19.0625 L 21.242188 -5.320312 C 16.941406 -10.945312 12.667969 -16.601562 8.363281 -22.195312 L 1.351562 -22.195312 L 1.351562 -19.0625 L 3.8125 -19.0625 L 3.8125 -3.136719 L 1.320312 -3.136719 Z M 1.320312 0 "/></g></g></g><g fill="#ffffff" fill-opacity="1"><g transform="translate(154.42154, 264.47341)"><g><path d="M 16.078125 -9.285156 L 9.621094 -9.285156 C 10.761719 -12.019531 11.867188 -14.789062 13.003906 -17.523438 C 14.050781 -14.789062 15.066406 -12.019531 16.078125 -9.285156 Z M 9.40625 -3.136719 L 7.070312 -3.136719 L 8.269531 -5.996094 L 17.308594 -5.996094 C 17.648438 -5.042969 18.015625 -4.089844 18.386719 -3.136719 L 15.832031 -3.136719 L 15.832031 0 L 25.425781 0 L 25.425781 -3.136719 L 22.6875 -3.136719 C 20.167969 -9.5 17.554688 -15.832031 15.035156 -22.195312 L 11.222656 -22.195312 C 8.425781 -15.800781 5.441406 -9.5 2.582031 -3.136719 L -0.183594 -3.136719 L -0.183594 0 L 9.40625 0 Z M 9.40625 -3.136719 "/></g></g></g><g fill="#ffffff" fill-opacity="1"><g transform="translate(182.698567, 264.47341)"><g><path d="M 1.320312 0 L 10.390625 0 L 10.390625 -3.136719 L 7.960938 -3.136719 L 7.960938 -16.480469 C 12.175781 -10.976562 16.355469 -5.472656 20.566406 0 L 25.394531 0 L 25.394531 -19.0625 L 27.640625 -19.0625 L 27.640625 -22.195312 L 18.847656 -22.195312 L 18.847656 -19.0625 L 21.242188 -19.0625 L 21.242188 -5.320312 C 16.941406 -10.945312 12.667969 -16.601562 8.363281 -22.195312 L 1.351562 -22.195312 L 1.351562 -19.0625 L 3.8125 -19.0625 L 3.8125 -3.136719 L 1.320312 -3.136719 Z M 1.320312 0 "/></g></g></g><g fill="#ffffff" fill-opacity="1"><g transform="translate(213.833936, 264.47341)"><g><path d="M 11.527344 7.902344 C 14.082031 7.902344 16.046875 6.949219 16.046875 4.550781 C 16.046875 2.828125 15.066406 1.753906 13.589844 1.320312 C 13.894531 0.859375 14.171875 0.429688 14.386719 0.121094 C 17.523438 -0.09375 19.769531 -1.046875 22.105469 -2.859375 C 21.152344 -4.152344 21.121094 -4.152344 21.121094 -4.152344 L 20.136719 -5.410156 C 17.738281 -3.84375 15.894531 -3.136719 13.128906 -3.136719 C 8.425781 -3.136719 5.871094 -5.964844 5.871094 -10.730469 C 5.871094 -15.894531 8.515625 -19.09375 13.527344 -19.09375 C 15.371094 -19.09375 17.09375 -18.753906 18.632812 -18.078125 L 18.632812 -15.710938 L 21.859375 -15.710938 L 21.859375 -20.105469 C 19.429688 -21.398438 16.726562 -22.351562 13.710938 -22.351562 C 6.242188 -22.351562 1.691406 -18.109375 1.691406 -10.574219 C 1.691406 -4.703125 4.765625 -1.074219 9.960938 -0.121094 C 9.4375 0.707031 8.945312 1.539062 8.730469 1.84375 L 11.558594 4.367188 C 11.746094 4.210938 11.929688 4.121094 12.144531 4.121094 C 12.480469 4.121094 12.726562 4.273438 12.726562 4.640625 C 12.726562 5.132812 12.265625 5.289062 11.714844 5.289062 C 11.007812 5.289062 10.390625 5.101562 9.53125 4.703125 L 8.886719 5.902344 L 8.207031 7.070312 C 9.316406 7.625 10.269531 7.902344 11.527344 7.902344 Z M 11.527344 7.902344 "/></g></g></g><g fill="#ffffff" fill-opacity="1"><g transform="translate(239.867325, 264.47341)"><g><path d="M 16.078125 -9.285156 L 9.621094 -9.285156 C 10.761719 -12.019531 11.867188 -14.789062 13.003906 -17.523438 C 14.050781 -14.789062 15.066406 -12.019531 16.078125 -9.285156 Z M 9.40625 -3.136719 L 7.070312 -3.136719 L 8.269531 -5.996094 L 17.308594 -5.996094 C 17.648438 -5.042969 18.015625 -4.089844 18.386719 -3.136719 L 15.832031 -3.136719 L 15.832031 0 L 25.425781 0 L 25.425781 -3.136719 L 22.6875 -3.136719 C 20.167969 -9.5 17.554688 -15.832031 15.035156 -22.195312 L 11.222656 -22.195312 C 8.425781 -15.800781 5.441406 -9.5 2.582031 -3.136719 L -0.183594 -3.136719 L -0.183594 0 L 9.40625 0 Z M 9.40625 -3.136719 "/></g></g></g><g fill="#ffffff" fill-opacity="1"><g transform="translate(268.144353, 264.47341)"><g><path d="M 9.839844 0.152344 C 14.847656 0.152344 19.03125 -1.414062 19.03125 -5.871094 C 19.03125 -9.777344 15.773438 -11.222656 12.019531 -12.757812 C 9.347656 -13.867188 6.488281 -14.910156 6.488281 -16.726562 L 6.488281 -16.816406 C 6.488281 -18.507812 8.179688 -19.246094 10.269531 -19.246094 C 11.773438 -19.246094 13.035156 -18.847656 14.296875 -18.355469 L 14.296875 -15.894531 L 17.523438 -15.894531 L 17.523438 -20.320312 C 15.15625 -21.550781 13.128906 -22.226562 10.390625 -22.226562 C 5.871094 -22.226562 2.304688 -20.476562 2.304688 -16.507812 C 2.304688 -12.699219 5.566406 -11.375 9.222656 -9.867188 C 11.988281 -8.730469 14.847656 -7.714844 14.847656 -5.8125 C 14.847656 -4.058594 12.636719 -3.105469 10.023438 -3.105469 C 8.300781 -3.105469 6.917969 -3.535156 5.472656 -4.179688 L 5.472656 -6.363281 L 2.246094 -6.363281 L 2.246094 -1.628906 L 2.304688 -1.628906 C 4.796875 -0.339844 6.980469 0.152344 9.839844 0.152344 Z M 9.839844 0.152344 "/></g></g></g><g fill="#81cc2a" fill-opacity="1"><g transform="translate(82.191956, 293.116615)"><g><path d="M 6.828125 -7.234375 L 2.5625 -7.234375 L 2.5625 -4.765625 L 6.421875 -4.765625 L 6.421875 -3.5 L 2.5625 -3.5 L 2.5625 0 L 1.125 0 L 1.125 -8.515625 L 6.84375 -8.515625 Z M 6.828125 -7.234375 "/></g></g></g><g fill="#81cc2a" fill-opacity="1"><g transform="translate(90.010196, 293.116615)"><g><path d="M 7.203125 -7.234375 L 2.5625 -7.234375 L 2.5625 -4.921875 L 6.71875 -4.921875 L 6.71875 -3.640625 L 2.5625 -3.640625 L 2.5625 -1.296875 L 7.359375 -1.296875 L 7.359375 0 L 1.125 0 L 1.125 -8.515625 L 7.203125 -8.515625 Z M 7.203125 -7.234375 "/></g></g></g><g fill="#81cc2a" fill-opacity="1"><g transform="translate(98.813155, 293.116615)"><g><path d="M 2.5625 -1.296875 L 6.25 -1.296875 L 6.25 0 L 1.125 0 L 1.125 -8.515625 L 2.5625 -8.515625 Z M 2.5625 -1.296875 "/></g></g></g><g fill="#81cc2a" fill-opacity="1"><g transform="translate(106.132962, 293.116615)"><g><path d="M 2.5625 0 L 1.125 0 L 1.125 -8.515625 L 2.5625 -8.515625 Z M 2.5625 0 "/></g></g></g><g fill="#81cc2a" fill-opacity="1"><g transform="translate(110.63233, 293.116615)"><g><path d="M 1.125 -8.515625 L 4.515625 -8.515625 C 5.585938 -8.515625 6.414062 -8.257812 7 -7.75 C 7.59375 -7.25 7.890625 -6.535156 7.890625 -5.609375 C 7.890625 -4.640625 7.59375 -3.890625 7 -3.359375 C 6.414062 -2.828125 5.585938 -2.5625 4.515625 -2.5625 L 2.5625 -2.5625 L 2.5625 0 L 1.125 0 Z M 2.5625 -7.234375 L 2.5625 -3.859375 L 4.453125 -3.859375 C 5.828125 -3.859375 6.515625 -4.429688 6.515625 -5.578125 C 6.515625 -6.679688 5.828125 -7.234375 4.453125 -7.234375 Z M 2.5625 -7.234375 "/></g></g></g><g fill="#81cc2a" fill-opacity="1"><g transform="translate(119.64196, 293.116615)"><g><path d="M 7.203125 -7.234375 L 2.5625 -7.234375 L 2.5625 -4.921875 L 6.71875 -4.921875 L 6.71875 -3.640625 L 2.5625 -3.640625 L 2.5625 -1.296875 L 7.359375 -1.296875 L 7.359375 0 L 1.125 0 L 1.125 -8.515625 L 7.203125 -8.515625 Z M 7.203125 -7.234375 "/></g></g></g><g fill="#81cc2a" fill-opacity="1"><g transform="translate(128.444919, 293.116615)"><g/></g></g><g fill="#81cc2a" fill-opacity="1"><g transform="translate(132.409385, 293.116615)"><g><path d="M 1.703125 -7.328125 C 2.578125 -8.148438 3.648438 -8.5625 4.921875 -8.5625 C 6.203125 -8.5625 7.273438 -8.148438 8.140625 -7.328125 C 9.015625 -6.503906 9.453125 -5.484375 9.453125 -4.265625 C 9.453125 -3.046875 9.015625 -2.019531 8.140625 -1.1875 C 7.273438 -0.351562 6.203125 0.0625 4.921875 0.0625 C 3.648438 0.0625 2.578125 -0.351562 1.703125 -1.1875 C 0.835938 -2.019531 0.40625 -3.046875 0.40625 -4.265625 C 0.40625 -5.484375 0.835938 -6.503906 1.703125 -7.328125 Z M 4.9375 -7.265625 C 4.09375 -7.265625 3.367188 -6.972656 2.765625 -6.390625 C 2.171875 -5.816406 1.875 -5.109375 1.875 -4.265625 C 1.875 -3.421875 2.175781 -2.703125 2.78125 -2.109375 C 3.382812 -1.523438 4.101562 -1.234375 4.9375 -1.234375 C 5.78125 -1.234375 6.492188 -1.523438 7.078125 -2.109375 C 7.671875 -2.703125 7.96875 -3.421875 7.96875 -4.265625 C 7.96875 -5.109375 7.671875 -5.816406 7.078125 -6.390625 C 6.492188 -6.972656 5.78125 -7.265625 4.9375 -7.265625 Z M 4.9375 -7.265625 "/></g></g></g><g fill="#81cc2a" fill-opacity="1"><g transform="translate(143.08453, 293.116615)"><g><path d="M 2.5625 -1.296875 L 6.25 -1.296875 L 6.25 0 L 1.125 0 L 1.125 -8.515625 L 2.5625 -8.515625 Z M 2.5625 -1.296875 "/></g></g></g><g fill="#81cc2a" fill-opacity="1"><g transform="translate(150.40434, 293.116615)"><g><path d="M 2.5625 0 L 1.125 0 L 1.125 -8.515625 L 2.5625 -8.515625 Z M 2.5625 0 "/></g></g></g><g fill="#81cc2a" fill-opacity="1"><g transform="translate(154.903709, 293.116615)"><g><path d="M 4.921875 0 L 3.4375 0 L 0.03125 -8.515625 L 1.578125 -8.515625 L 4.21875 -1.59375 L 6.859375 -8.515625 L 8.359375 -8.515625 Z M 4.921875 0 "/></g></g></g><g fill="#81cc2a" fill-opacity="1"><g transform="translate(164.120011, 293.116615)"><g><path d="M 7.203125 -7.234375 L 2.5625 -7.234375 L 2.5625 -4.921875 L 6.71875 -4.921875 L 6.71875 -3.640625 L 2.5625 -3.640625 L 2.5625 -1.296875 L 7.359375 -1.296875 L 7.359375 0 L 1.125 0 L 1.125 -8.515625 L 7.203125 -8.515625 Z M 7.203125 -7.234375 "/></g></g></g><g fill="#81cc2a" fill-opacity="1"><g transform="translate(172.922973, 293.116615)"><g><path d="M 2.5625 0 L 1.125 0 L 1.125 -8.515625 L 2.5625 -8.515625 Z M 2.5625 0 "/></g></g></g><g fill="#81cc2a" fill-opacity="1"><g transform="translate(177.422343, 293.116615)"><g><path d="M 6.53125 0 L 4.96875 -2.578125 C 4.882812 -2.566406 4.753906 -2.5625 4.578125 -2.5625 L 2.5625 -2.5625 L 2.5625 0 L 1.125 0 L 1.125 -8.515625 L 4.578125 -8.515625 C 5.660156 -8.515625 6.503906 -8.257812 7.109375 -7.75 C 7.710938 -7.25 8.015625 -6.535156 8.015625 -5.609375 C 8.015625 -4.929688 7.859375 -4.351562 7.546875 -3.875 C 7.242188 -3.40625 6.8125 -3.0625 6.25 -2.84375 L 8.15625 0 Z M 2.5625 -3.859375 L 4.578125 -3.859375 C 5.953125 -3.859375 6.640625 -4.429688 6.640625 -5.578125 C 6.640625 -6.679688 5.953125 -7.234375 4.578125 -7.234375 L 2.5625 -7.234375 Z M 2.5625 -3.859375 "/></g></g></g><g fill="#81cc2a" fill-opacity="1"><g transform="translate(187.039838, 293.116615)"><g><path d="M 6.625 -1.921875 L 2.328125 -1.921875 L 1.515625 0 L 0.015625 0 L 3.765625 -8.515625 L 5.25 -8.515625 L 8.96875 0 L 7.4375 0 Z M 6.078125 -3.203125 L 4.46875 -6.984375 L 2.859375 -3.203125 Z M 6.078125 -3.203125 "/></g></g></g><g fill="#81cc2a" fill-opacity="1"><g transform="translate(196.839681, 293.116615)"><g/></g></g><g fill="#81cc2a" fill-opacity="1"><g transform="translate(200.804151, 293.116615)"><g><path d="M 1.125 -8.515625 L 4.609375 -8.515625 C 5.890625 -8.515625 6.941406 -8.113281 7.765625 -7.3125 C 8.597656 -6.507812 9.015625 -5.488281 9.015625 -4.25 C 9.015625 -3.019531 8.597656 -2.003906 7.765625 -1.203125 C 6.929688 -0.398438 5.867188 0 4.578125 0 L 1.125 0 Z M 2.5625 -7.234375 L 2.5625 -1.296875 L 4.65625 -1.296875 C 5.488281 -1.296875 6.179688 -1.570312 6.734375 -2.125 C 7.296875 -2.675781 7.578125 -3.378906 7.578125 -4.234375 C 7.578125 -5.097656 7.289062 -5.8125 6.71875 -6.375 C 6.144531 -6.945312 5.4375 -7.234375 4.59375 -7.234375 Z M 2.5625 -7.234375 "/></g></g></g><g fill="#81cc2a" fill-opacity="1"><g transform="translate(211.053801, 293.116615)"><g><path d="M 1.703125 -7.328125 C 2.578125 -8.148438 3.648438 -8.5625 4.921875 -8.5625 C 6.203125 -8.5625 7.273438 -8.148438 8.140625 -7.328125 C 9.015625 -6.503906 9.453125 -5.484375 9.453125 -4.265625 C 9.453125 -3.046875 9.015625 -2.019531 8.140625 -1.1875 C 7.273438 -0.351562 6.203125 0.0625 4.921875 0.0625 C 3.648438 0.0625 2.578125 -0.351562 1.703125 -1.1875 C 0.835938 -2.019531 0.40625 -3.046875 0.40625 -4.265625 C 0.40625 -5.484375 0.835938 -6.503906 1.703125 -7.328125 Z M 4.9375 -7.265625 C 4.09375 -7.265625 3.367188 -6.972656 2.765625 -6.390625 C 2.171875 -5.816406 1.875 -5.109375 1.875 -4.265625 C 1.875 -3.421875 2.175781 -2.703125 2.78125 -2.109375 C 3.382812 -1.523438 4.101562 -1.234375 4.9375 -1.234375 C 5.78125 -1.234375 6.492188 -1.523438 7.078125 -2.109375 C 7.671875 -2.703125 7.96875 -3.421875 7.96875 -4.265625 C 7.96875 -5.109375 7.671875 -5.816406 7.078125 -6.390625 C 6.492188 -6.972656 5.78125 -7.265625 4.9375 -7.265625 Z M 4.9375 -7.265625 "/></g></g></g><g fill="#81cc2a" fill-opacity="1"><g transform="translate(221.728942, 293.116615)"><g><path d="M 10.125 0 L 8.796875 0 L 8.78125 -6.359375 L 6.09375 -0.890625 L 5.15625 -0.890625 L 2.46875 -6.359375 L 2.46875 0 L 1.125 0 L 1.125 -8.515625 L 2.828125 -8.515625 L 5.640625 -2.859375 L 8.4375 -8.515625 L 10.125 -8.515625 Z M 10.125 0 "/></g></g></g><g fill="#81cc2a" fill-opacity="1"><g transform="translate(233.802142, 293.116615)"><g><path d="M 2.5625 0 L 1.125 0 L 1.125 -8.515625 L 2.5625 -8.515625 Z M 2.5625 0 "/></g></g></g><g fill="#81cc2a" fill-opacity="1"><g transform="translate(238.301504, 293.116615)"><g><path d="M 8.515625 0 L 7.09375 0 L 2.5625 -6.109375 L 2.5625 0 L 1.125 0 L 1.125 -8.515625 L 2.53125 -8.515625 L 7.09375 -2.390625 L 7.09375 -8.515625 L 8.515625 -8.515625 Z M 8.515625 0 "/></g></g></g><g fill="#81cc2a" fill-opacity="1"><g transform="translate(248.757815, 293.116615)"><g><path d="M 2.5625 0 L 1.125 0 L 1.125 -8.515625 L 2.5625 -8.515625 Z M 2.5625 0 "/></g></g></g><g fill="#81cc2a" fill-opacity="1"><g transform="translate(253.257177, 293.116615)"><g><path d="M 4.890625 -8.5625 C 5.492188 -8.5625 6.082031 -8.441406 6.65625 -8.203125 C 7.226562 -7.972656 7.71875 -7.65625 8.125 -7.25 L 7.296875 -6.203125 C 6.984375 -6.523438 6.613281 -6.785156 6.1875 -6.984375 C 5.769531 -7.179688 5.347656 -7.28125 4.921875 -7.28125 C 4.066406 -7.28125 3.34375 -6.988281 2.75 -6.40625 C 2.164062 -5.820312 1.875 -5.113281 1.875 -4.28125 C 1.875 -3.4375 2.164062 -2.722656 2.75 -2.140625 C 3.34375 -1.566406 4.066406 -1.28125 4.921875 -1.28125 C 5.804688 -1.28125 6.597656 -1.613281 7.296875 -2.28125 L 8.140625 -1.34375 C 7.703125 -0.90625 7.191406 -0.5625 6.609375 -0.3125 C 6.023438 -0.0625 5.4375 0.0625 4.84375 0.0625 C 3.59375 0.0625 2.539062 -0.351562 1.6875 -1.1875 C 0.832031 -2.019531 0.40625 -3.046875 0.40625 -4.265625 C 0.40625 -5.484375 0.835938 -6.503906 1.703125 -7.328125 C 2.566406 -8.148438 3.628906 -8.5625 4.890625 -8.5625 Z M 4.890625 -8.5625 "/></g></g></g><g fill="#81cc2a" fill-opacity="1"><g transform="translate(262.55858, 293.116615)"><g><path d="M 8.515625 0 L 7.078125 0 L 7.078125 -3.53125 L 2.5625 -3.53125 L 2.5625 0 L 1.125 0 L 1.125 -8.515625 L 2.5625 -8.515625 L 2.5625 -4.8125 L 7.078125 -4.8125 L 7.078125 -8.515625 L 8.515625 -8.515625 Z M 8.515625 0 "/></g></g></g><g fill="#81cc2a" fill-opacity="1"><g transform="translate(273.002745, 293.116615)"><g><path d="M 7.203125 -7.234375 L 2.5625 -7.234375 L 2.5625 -4.921875 L 6.71875 -4.921875 L 6.71875 -3.640625 L 2.5625 -3.640625 L 2.5625 -1.296875 L 7.359375 -1.296875 L 7.359375 0 L 1.125 0 L 1.125 -8.515625 L 7.203125 -8.515625 Z M 7.203125 -7.234375 "/></g></g></g><g fill="#81cc2a" fill-opacity="1"><g transform="translate(281.8057, 293.116615)"><g><path d="M 2.5625 -1.296875 L 6.25 -1.296875 L 6.25 0 L 1.125 0 L 1.125 -8.515625 L 2.5625 -8.515625 Z M 2.5625 -1.296875 "/></g></g></g><g fill="#81cc2a" fill-opacity="1"><g transform="translate(289.125502, 293.116615)"><g><path d="M 2.5625 0 L 1.125 0 L 1.125 -8.515625 L 2.5625 -8.515625 Z M 2.5625 0 "/></g></g></g></svg>